<?xml version="1.0" encoding="iso-8859-1"?>
<!-- Generator: Adobe Illustrator 19.0.0, SVG Export Plug-In . SVG Version: 6.00 Build 0)  -->
<svg version="1.1" id="Layer_1" xmlns="http://www.w3.org/2000/svg" xmlns:xlink="http://www.w3.org/1999/xlink" x="0px" y="0px"
	 viewBox="0 0 339.469 339.469" style="enable-background:new 0 0 339.469 339.469;" xml:space="preserve">
<g>
	<g>
		<path d="M293.198,0H46.271C20.297,0,0,21.416,0,46.271v246.926c0,25.974,21.415,46.271,46.271,46.271h246.926
			c25.974,0,46.271-20.297,46.271-46.271V46.271C339.47,20.297,317.968,0,293.198,0z M317.968,294.317
			c0,13.503-11.267,23.652-23.652,23.652H47.39c-13.503,0-23.652-11.267-23.652-23.652V47.39c0-13.503,11.267-23.652,23.652-23.652
			h246.926c13.503,0,23.652,11.267,23.652,23.652V294.317z"/>
	</g>
</g>
<g>
</g>
<g>
</g>
<g>
</g>
<g>
</g>
<g>
</g>
<g>
</g>
<g>
</g>
<g>
</g>
<g>
</g>
<g>
</g>
<g>
</g>
<g>
</g>
<g>
</g>
<g>
</g>
<g>
</g>
</svg>
