<?xml version="1.0" standalone="no"?>
<!DOCTYPE svg PUBLIC "-//W3C//DTD SVG 20010904//EN"
 "http://www.w3.org/TR/2001/REC-SVG-20010904/DTD/svg10.dtd">
<svg version="1.0" xmlns="http://www.w3.org/2000/svg"
 width="512.000000pt" height="512.000000pt" viewBox="0 0 512.000000 512.000000"
 preserveAspectRatio="xMidYMid meet">

<g transform="translate(0.000000,512.000000) scale(0.100000,-0.100000)"
fill="#000000" stroke="none">
<path d="M2155 5106 c-37 -17 -70 -52 -84 -89 -7 -17 -11 -115 -11 -241 l0
-212 -147 -49 c-81 -27 -208 -79 -283 -116 l-135 -68 -160 159 c-245 242 -221
247 -587 -118 -364 -365 -359 -342 -122 -582 85 -86 154 -159 154 -163 0 -4
-22 -47 -49 -95 -59 -104 -113 -231 -156 -367 l-32 -100 -221 -5 c-242 -5
-246 -7 -296 -74 -20 -27 -21 -39 -21 -426 0 -387 1 -399 21 -426 50 -67 55
-69 291 -74 l216 -5 26 -95 c35 -126 90 -263 155 -385 l53 -100 -148 -150
c-229 -234 -234 -214 129 -577 363 -362 343 -358 573 -131 l148 145 33 -20
c122 -75 480 -222 540 -222 15 0 17 -23 20 -209 3 -230 5 -235 72 -285 27 -20
39 -21 426 -21 387 0 399 1 426 21 67 50 69 55 72 285 3 175 5 209 18 209 26
0 237 72 326 111 49 21 124 59 169 85 l81 46 147 -145 c230 -227 210 -231 573
131 363 363 358 343 129 577 l-148 150 53 100 c65 122 120 259 155 385 l26 95
216 5 c236 5 241 7 291 74 20 27 21 39 21 426 0 387 -1 399 -21 426 -50 67
-54 69 -296 74 l-220 5 -38 115 c-45 137 -97 257 -156 362 -24 43 -44 81 -44
85 0 3 69 77 154 163 237 240 242 217 -122 582 -366 365 -342 360 -587 118
l-160 -159 -115 58 c-128 65 -232 107 -362 147 l-87 26 -3 228 c-3 251 -4 254
-72 304 -26 20 -41 21 -414 23 -307 2 -393 0 -417 -11z m631 -1211 c564 -98
1012 -544 1108 -1104 21 -123 21 -339 0 -462 -47 -273 -178 -523 -379 -724
-261 -262 -583 -395 -955 -395 -371 0 -694 133 -955 395 -201 201 -332 451
-379 724 -20 121 -21 340 -1 457 97 562 542 1010 1100 1108 110 19 350 20 461
1z"/>
<path d="M2340 3591 c-416 -91 -737 -421 -816 -838 -22 -119 -15 -345 14 -455
100 -372 383 -656 760 -761 66 -18 104 -21 262 -21 158 0 196 3 262 21 376
105 656 385 761 761 18 66 21 104 21 262 0 158 -3 196 -21 262 -105 377 -387
659 -761 760 -112 30 -364 35 -482 9z m349 -600 c33 -10 80 -30 103 -44 54
-31 139 -120 166 -173 69 -135 69 -293 0 -428 -27 -53 -112 -142 -166 -173
-140 -82 -324 -82 -464 0 -54 31 -139 120 -166 173 -69 135 -69 293 0 428 27
53 112 142 166 173 106 62 247 80 361 44z"/>
</g>
</svg>
