<?xml version="1.0" standalone="no"?>
<!DOCTYPE svg PUBLIC "-//W3C//DTD SVG 20010904//EN"
 "http://www.w3.org/TR/2001/REC-SVG-20010904/DTD/svg10.dtd">
<svg version="1.0" xmlns="http://www.w3.org/2000/svg"
 width="512.000000pt" height="512.000000pt" viewBox="0 0 512.000000 512.000000"
 preserveAspectRatio="xMidYMid meet">

<g transform="translate(0.000000,512.000000) scale(0.100000,-0.100000)"
fill="#000000" stroke="none">
<path d="M3480 4941 c-281 -60 -533 -242 -680 -491 -76 -128 -140 -344 -140
-469 l0 -51 150 0 150 0 0 35 c0 67 32 190 69 270 125 264 374 425 658 425
122 0 217 -22 328 -75 146 -70 271 -195 339 -338 59 -125 58 -127 -42 -49
l-90 71 -90 -117 c-50 -64 -88 -120 -86 -124 2 -3 123 -99 269 -212 l264 -206
253 196 c139 108 260 203 270 212 15 16 10 25 -72 130 -49 62 -91 114 -93 115
-2 1 -52 -35 -111 -81 -60 -46 -109 -82 -110 -80 -1 2 -12 43 -24 93 -94 375
-419 676 -810 751 -102 19 -297 17 -402 -5z"/>
<path d="M1 2228 c0 -1520 1 -1648 17 -1709 44 -166 179 -300 349 -344 50 -13
298 -15 1895 -15 1835 0 1839 0 1901 21 120 40 225 131 278 240 22 44 669
2395 669 2429 0 6 -192 10 -510 10 l-510 0 0 330 0 330 -1026 0 -1026 0 -223
175 -224 175 -795 0 -796 0 1 -1642z m1705 1170 l219 -173 930 -5 930 -5 3
-177 2 -178 -1224 0 c-1158 0 -1225 -1 -1230 -17 -3 -10 -138 -508 -301 -1108
-162 -600 -302 -1107 -311 -1127 -40 -91 -124 -143 -230 -143 -60 0 -77 4
-111 27 -24 16 -49 44 -62 70 l-21 44 0 1482 0 1482 594 0 593 0 219 -172z
m3014 -842 c0 -2 -121 -450 -269 -995 -166 -612 -277 -1004 -291 -1026 -12
-20 -39 -44 -61 -55 -38 -20 -66 -20 -1574 -20 l-1535 0 15 36 c8 20 137 484
285 1032 149 549 273 1005 276 1015 5 16 89 17 1580 17 866 0 1574 -2 1574 -4z"/>
<path d="M1880 910 l0 -150 905 0 905 0 0 150 0 150 -905 0 -905 0 0 -150z"/>
</g>
</svg>
