<?xml version="1.0" standalone="no"?>
<!DOCTYPE svg PUBLIC "-//W3C//DTD SVG 20010904//EN"
 "http://www.w3.org/TR/2001/REC-SVG-20010904/DTD/svg10.dtd">
<svg version="1.0" xmlns="http://www.w3.org/2000/svg"
 width="512.000000pt" height="512.000000pt" viewBox="0 0 512.000000 512.000000"
 preserveAspectRatio="xMidYMid meet">

<g transform="translate(0.000000,512.000000) scale(0.100000,-0.100000)"
fill="#000000" stroke="none">
<path d="M345 5106 c-84 -21 -147 -57 -210 -121 -65 -65 -105 -137 -124 -223
-16 -76 -16 -4328 0 -4404 37 -172 175 -310 347 -347 75 -16 4328 -16 4404 0
170 36 311 178 347 347 8 38 11 554 11 1783 0 1564 -2 1733 -16 1762 -22 44
-1150 1174 -1196 1198 -36 19 -76 19 -1775 18 -1356 -1 -1749 -3 -1788 -13z
m625 -796 c0 -336 4 -527 11 -562 36 -171 175 -310 347 -347 74 -16 1989 -16
2064 0 170 36 311 178 347 347 7 35 11 228 11 562 0 401 3 510 12 510 7 0 248
-235 535 -522 l523 -523 0 -1679 0 -1678 -22 -40 c-45 -79 -35 -78 -573 -78
l-475 0 0 920 c0 647 -3 935 -11 972 -37 172 -176 311 -347 347 -75 16 -1990
15 -2064 0 -172 -37 -311 -176 -347 -347 -8 -37 -11 -335 -11 -972 l0 -920
-276 0 c-268 0 -278 1 -316 22 -24 14 -48 38 -59 60 -18 36 -19 95 -19 2180 1
2044 2 2145 19 2177 10 18 35 44 57 57 39 24 42 24 317 24 l277 0 0 -510z
m1840 -55 l0 -565 -711 0 -711 0 -40 22 c-24 14 -48 38 -59 60 -18 35 -19 66
-19 543 l0 505 770 0 770 0 0 -565z m640 59 c0 -506 0 -506 -22 -546 -36 -63
-76 -78 -208 -78 l-110 0 0 565 0 565 170 0 170 0 0 -506z m-80 -2084 c63 -32
80 -77 80 -210 l0 -110 -1090 0 -1090 0 0 113 c1 131 14 166 76 203 l39 24
973 0 c955 0 974 0 1012 -20z m80 -1275 l0 -655 -1090 0 -1090 0 0 655 0 655
1090 0 1090 0 0 -655z"/>
</g>
</svg>
